<svg xmlns="http://www.w3.org/2000/svg" width="12793.509445694084" height="11495.63306534918" viewBox="1.9985940424388078 1.341045267639629 12793.509445694084 11495.63306534918">
    <path d="M7920 11494 c-193 -21 -251 -29 -355 -50 -540 -105 -1036 -366 -1442 -758 -515 -495 -834 -1162 -904 -1891 -15 -154 -6 -563 15 -705 66 -440 220 -857 442 -1203 24 -37 44 -69 44 -71 0 -2 -147 -3 -327 -4 -414 -1 -765 -23 -1172 -72 -97 -12 -167 -17 -170 -11 -3 5 -33 52 -66 106 -231 372 -633 798 -1040 1101 -309 229 -625 409 -936 532 -287 113 -392 130 -500 79 -65 -32 -118 -81 -249 -237 -627 -745 -1009 -1563 -1170 -2505 -54 -320 -77 -574 -86 -965 -28 -1207 238 -2308 785 -3242 120 -204 228 -364 270 -397 84 -67 585 -319 901 -454 1197 -511 2535 -769 3865 -744 983 19 1875 166 2783 458 334 108 918 340 1013 404 99 65 407 488 599 824 620 1080 835 2329 614 3561 -75 415 -226 892 -401 1262 -39 82 -54 124 -47 133 5 7 42 58 82 114 41 55 77 99 81 96 4 -2 68 -8 142 -14 766 -53 1474 347 1858 1051 105 192 186 439 228 693 27 167 24 487 -6 660 -33 189 -64 249 -150 289 -46 21 -51 21 -846 21 -440 0 -828 -3 -861 -7 l-62 -7 -32 86 c-54 143 -194 412 -289 554 -479 720 -1201 1178 -2040 1295 -101 14 -496 27 -571 18z" fill="#FFD700" stroke="black" stroke-width="12.793509445694085" transform="matrix(1 0 0 -1 0 11498.31515588446)" />
</svg>
